<svg xmlns="http://www.w3.org/2000/svg" width="1200" height="1790" viewBox="0 0 1200 1790" version="1.1"><path d="M 99.748 97.752 L 12 185.504 12 369.504 L 12 553.504 100.252 641.752 L 188.504 730 325 730 L 461.495 730 388.247 803.253 L 315 876.505 315 903.753 L 315 931 301.500 931 L 288 931 288 852.500 L 288 774 150 774 L 12 774 12 894.248 L 12 1014.496 100.248 1102.748 L 188.496 1191 251.748 1191 L 315 1191 315 1398.252 L 315 1605.504 402.752 1693.252 L 490.504 1781 755.489 1781 L 1020.473 1781 1108.237 1693.258 L 1196 1605.515 1196 1484.754 L 1196 1363.993 1058.250 1364.246 L 920.500 1364.500 920.244 1442.750 L 919.988 1521 754.994 1521 L 590 1521 590 1356 L 590 1191 653.737 1191 L 717.473 1191 805.237 1103.258 L 893 1015.515 893 987.758 L 893 960 906.500 960 L 920 960 920 1038.500 L 920 1117 1058 1117 L 1196 1117 1196 996.748 L 1196 876.496 1108.248 788.748 L 1020.496 701 956.748 701 L 893 701 893 673.242 L 893 645.485 805.237 557.742 L 717.473 470 502.737 470 L 288 470 288 369.500 L 288 269 453 269 L 618 269 618 347.500 L 618 426 755.500 426 L 893 426 893 305.248 L 893 184.496 805.748 97.248 L 718.496 10 452.996 10 L 187.496 10 99.748 97.752 M 119.748 117.752 L 40 197.505 40 369.505 L 40 541.505 119.752 621.252 L 199.505 701 422.752 701 L 646 701 646 830.500 L 646 960 618 960 L 590 960 590 1061 L 590 1162 648.252 1162 L 706.505 1162 785.752 1082.748 L 865 1003.495 865 830.495 L 865 657.495 785.750 578.250 L 706.500 499.004 483 498.752 L 259.500 498.500 259.500 369.500 L 259.500 240.500 452.750 240.247 L 646 239.995 646 318.497 L 646 397 755.500 397 L 865 397 865 296.748 L 865 196.495 785.748 117.248 L 706.495 38 452.995 38 L 199.495 38 119.748 117.752 M 422.748 808.752 L 343 888.505 343.004 1240.502 L 343.009 1592.500 422.088 1672.250 L 501.167 1752 754.836 1752 L 1008.505 1752 1088.252 1672.248 L 1168 1592.495 1168 1492.748 L 1168 1393 1058.500 1393 L 949 1393 949 1471.500 L 949 1550 755.500 1550 L 562 1550 562 1241 L 562 932 590 932 L 618 932 618 830.500 L 618 729 560.248 729 L 502.495 729 422.748 808.752 M 893 830.500 L 893 932 921 932 L 949 932 949 1010.500 L 949 1089 1058.500 1089 L 1168 1089 1168 988.748 L 1168 888.495 1088.248 808.748 L 1008.495 729 950.748 729 L 893 729 893 830.500 M 40 902.752 L 40 1002.505 119.752 1082.252 L 199.505 1162 257.252 1162 L 315 1162 315 1061.016 L 315 960.032 287.250 959.766 L 259.500 959.500 259.244 881.250 L 258.988 803 149.494 803 L 40 803 40 902.752" stroke="none" fill="#fbcb2b" fillRule="evenodd"/><path d="M 119.748 117.752 L 40 197.505 40 369.505 L 40 541.505 119.752 621.252 L 199.505 701 422.752 701 L 646 701 646 830.500 L 646 960 618 960 L 590 960 590 1061 L 590 1162 648.252 1162 L 706.505 1162 785.752 1082.748 L 865 1003.495 865 830.495 L 865 657.495 785.750 578.250 L 706.500 499.004 483 498.752 L 259.500 498.500 259.500 369.500 L 259.500 240.500 452.750 240.247 L 646 239.995 646 318.497 L 646 397 755.500 397 L 865 397 865 296.748 L 865 196.495 785.748 117.248 L 706.495 38 452.995 38 L 199.495 38 119.748 117.752 M 422.748 808.752 L 343 888.505 343.004 1240.502 L 343.009 1592.500 422.088 1672.250 L 501.167 1752 754.836 1752 L 1008.505 1752 1088.252 1672.248 L 1168 1592.495 1168 1492.748 L 1168 1393 1058.500 1393 L 949 1393 949 1471.500 L 949 1550 755.500 1550 L 562 1550 562 1241 L 562 932 590 932 L 618 932 618 830.500 L 618 729 560.248 729 L 502.495 729 422.748 808.752 M 893 830.500 L 893 932 921 932 L 949 932 949 1010.500 L 949 1089 1058.500 1089 L 1168 1089 1168 988.748 L 1168 888.495 1088.248 808.748 L 1008.495 729 950.748 729 L 893 729 893 830.500 M 40 902.752 L 40 1002.505 119.752 1082.252 L 199.505 1162 257.252 1162 L 315 1162 315 1061.016 L 315 960.032 287.250 959.766 L 259.500 959.500 259.244 881.250 L 258.988 803 149.494 803 L 40 803 40 902.752" stroke="none" fill="#9c1c33" fillRule="evenodd"/></svg>